<svg xmlns="http://www.w3.org/2000/svg" viewBox="0 0 323.12 311.68"><defs><style>.cls-1{fill:none;stroke:#3c3c3c;stroke-miterlimit:10;}.cls-2{fill:#3c3c3b;}</style></defs><g id="Livello_2" data-name="Livello 2"><g id="Livello_1-2" data-name="Livello 1"><path class="cls-1" d="M1.4,120.61H5.11q57,0,114,.08c2.54,0,3.65-.64,4.47-3.14Q141.8,61.24,160.25,5c.32-1,.68-2,1.2-3.45,2,6,3.8,11.45,5.59,16.94q16.35,50.05,32.64,100.14c.6,1.84,1.6,2,3.19,2q57.66,0,115.34,0h3.4c-3.1,2.3-5.63,4.19-8.17,6q-43.6,32-87.25,64c-2.07,1.5-2.29,2.69-1.51,5Q244,252.46,263.07,309.3a10.07,10.07,0,0,1,.19,1L161.43,237.88,59.49,310.41c.53-1.66.86-2.74,1.22-3.8q12.51-37.14,25-74.27c4.26-12.63,8.49-25.26,12.82-37.86a2.34,2.34,0,0,0-1-3.18q-47-34.4-93.89-68.87C3.06,122,2.51,121.51,1.4,120.61Z"/><path class="cls-2" d="M91.14,151.16h1.62q25.06,0,50.11,0a1.68,1.68,0,0,0,2-1.38q8-24.75,16.12-49.46l.53-1.52c.87,2.63,1.67,5,2.46,7.45q7.19,22,14.34,44c.27.81.71.89,1.4.89q25.35,0,50.7,0h1.49l-3.59,2.66q-19.15,14.09-38.35,28.12a1.61,1.61,0,0,0-.66,2.2q8.47,25,16.88,50c0,.06,0,.13.08.45L161.47,202.7l-44.8,31.88.53-1.67q5.51-16.32,11-32.65c1.88-5.54,3.73-11.1,5.64-16.63a1,1,0,0,0-.45-1.4Q112.74,167.11,92.12,152C91.86,151.77,91.62,151.56,91.14,151.16Z"/></g></g></svg>