<svg xmlns="http://www.w3.org/2000/svg" viewBox="0 0 333.42 212.33"><defs><style>.cls-1{fill:#0e4794;}.cls-2{fill:#c836d8;}.cls-3{opacity:0.52;}.cls-4{fill:#efdc2b;}</style></defs><g id="Livello_2" data-name="Livello 2"><g id="Livello_1-2" data-name="Livello 1"><path class="cls-1" d="M16.21,117.38v22.51H28.72q4.88,0,6.51-1.47c1.46-1.29,2.27-3.55,2.44-6.8h1.55v19.82H37.67a22.29,22.29,0,0,0-1.18-5.34A5.28,5.28,0,0,0,34,143.79a12.62,12.62,0,0,0-5.29-.84H16.21v18.78a17.68,17.68,0,0,0,.33,4.59,2.71,2.71,0,0,0,1.18,1.31,7.17,7.17,0,0,0,3.19.48h9.66a26.46,26.46,0,0,0,7-.67,10.4,10.4,0,0,0,4.2-2.65,32.33,32.33,0,0,0,5.34-7.85h1.67l-4.91,14.28H0v-1.56H2a8,8,0,0,0,3.82-1,3.54,3.54,0,0,0,1.82-2,19.77,19.77,0,0,0,.49-5.5v-37q0-5.42-1.1-6.67-1.5-1.68-5-1.68H0v-1.56H43.88l.63,12.48H42.87a19.34,19.34,0,0,0-1.95-6.18A6.69,6.69,0,0,0,37.75,118a19,19,0,0,0-5.92-.63Z"/><path class="cls-1" d="M91.79,115.83v-1.56H112v1.56h-2.14a5.81,5.81,0,0,0-5.17,2.81c-.58.87-.88,2.89-.88,6v23.09q0,8.57-1.7,13.29a16.68,16.68,0,0,1-6.67,8.11q-5,3.38-13.55,3.38-9.32,0-14.15-3.23a17.51,17.51,0,0,1-6.84-8.7q-1.35-3.74-1.35-14V124.35q0-5.25-1.45-6.88c-1-1.1-2.52-1.64-4.68-1.64H51.23v-1.56H75.84v1.56H73.65q-3.53,0-5,2.22-1.05,1.52-1.05,6.3v24.82a55.55,55.55,0,0,0,.6,7.6,16.16,16.16,0,0,0,2.21,6.68,12,12,0,0,0,4.6,3.94A15.82,15.82,0,0,0,82.35,169a20.25,20.25,0,0,0,10-2.44,13.06,13.06,0,0,0,6-6.23q1.6-3.81,1.61-12.87V124.35c0-3.55-.39-5.78-1.17-6.67a6.15,6.15,0,0,0-4.87-1.85Z"/><path class="cls-1" d="M171,171.22h-15.2l-19.27-26.63c-1.43.06-2.59.09-3.49.09l-1.17,0-1.31-.06v16.55c0,3.58.4,5.81,1.18,6.67a6,6,0,0,0,4.79,1.85h2.22v1.56h-24.4v-1.56h2.15c2.4,0,4.13-.78,5.16-2.35.59-.87.88-2.92.88-6.17V124.35c0-3.58-.39-5.81-1.17-6.67a6.15,6.15,0,0,0-4.87-1.85h-2.15v-1.56h20.75q9.07,0,13.37,1.33a15.25,15.25,0,0,1,7.31,4.87,12.66,12.66,0,0,1,3,8.46,13.28,13.28,0,0,1-3.42,9.11q-3.42,3.87-10.6,5.46l11.75,16.34q4,5.63,6.93,7.47a17.43,17.43,0,0,0,7.56,2.35ZM130.55,142c.53,0,1,0,1.39,0l1,0q8.15,0,12.28-3.53a11.29,11.29,0,0,0,4.13-9A11.77,11.77,0,0,0,146,120.8a12,12,0,0,0-8.84-3.33,37.18,37.18,0,0,0-6.6.79Z"/><path class="cls-1" d="M201.69,113a25.84,25.84,0,0,1,19.21,8.42q8.13,8.43,8.13,21,0,13-8.19,21.54a27.37,27.37,0,0,1-39.58.21q-8-8.35-8-21.63,0-13.56,9.24-22.12A27.22,27.22,0,0,1,201.69,113Zm-.8,3.07a15,15,0,0,0-12.26,5.67q-5.76,7-5.75,20.66,0,13.94,6,21.45a14.73,14.73,0,0,0,12.09,5.72,16.52,16.52,0,0,0,13.25-6.26q5.23-6.25,5.23-19.74,0-14.61-5.75-21.79Q209,116,200.89,116Z"/><path class="cls-1" d="M250,144.55v16.59c0,3.58.39,5.81,1.18,6.67a6,6,0,0,0,4.82,1.85h2.19v1.56h-24.4v-1.56h2.14q3.61,0,5.17-2.35c.56-.87.84-2.92.84-6.17V124.35c0-3.58-.38-5.81-1.14-6.67a6.13,6.13,0,0,0-4.87-1.85h-2.14v-1.56h20.87a36.93,36.93,0,0,1,12.05,1.58,16.56,16.56,0,0,1,7.43,5.31,13.64,13.64,0,0,1,3,8.86,14.91,14.91,0,0,1-4.6,11.34q-4.6,4.37-13,4.37a36,36,0,0,1-4.45-.3C253.51,145.24,251.8,144.94,250,144.55Zm0-2.39c1.48.28,2.8.49,4,.63a24.63,24.63,0,0,0,2.94.21,10,10,0,0,0,7.53-3.38,12.27,12.27,0,0,0,3.17-8.76,15.69,15.69,0,0,0-1.51-6.86,10.41,10.41,0,0,0-4.28-4.75,12.53,12.53,0,0,0-6.3-1.57,24.86,24.86,0,0,0-5.5.79Z"/><path class="cls-1" d="M311.62,152.15h-22l-3.87,9a14.19,14.19,0,0,0-1.42,5,2.87,2.87,0,0,0,1.24,2.29c.82.66,2.61,1.09,5.35,1.28v1.56H273v-1.56c2.38-.42,3.92-1,4.62-1.64q2.15-2,4.74-8.18l20-46.87h1.47l19.82,47.37q2.4,5.72,4.35,7.41a8.81,8.81,0,0,0,5.44,1.91v1.56H311v-1.56c2.27-.11,3.8-.49,4.6-1.13a2.93,2.93,0,0,0,1.2-2.35,17.37,17.37,0,0,0-1.68-5.84ZM310.45,149l-9.66-23-9.91,23Z"/><path class="cls-2" d="M75.09,187.47a49.05,49.05,0,0,1,7.6-.54c4.73,0,7.82.88,10.21,2.68,2.59,1.93,4.22,5,4.22,9.39,0,4.78-1.73,8.08-4.12,10.1-2.63,2.19-6.65,3.23-11.51,3.23a47.55,47.55,0,0,1-6.4-.37Zm5.63,20.35a11.75,11.75,0,0,0,2,.1c5.1,0,8.46-2.78,8.46-8.74,0-5.18-3-7.91-7.87-7.91a12.26,12.26,0,0,0-2.56.22Z"/><path class="cls-2" d="M115.43,187.13v24.94h-5.64V187.13Z"/><path class="cls-2" d="M150.12,210.92a27.8,27.8,0,0,1-8.33,1.4c-4.56,0-7.84-1.14-10.14-3.35a12.26,12.26,0,0,1-3.53-9.08c0-8.29,6.08-13,14.24-13a17.45,17.45,0,0,1,6.94,1.2l-1.18,4.51a13.89,13.89,0,0,0-5.8-1.05c-4.71,0-8.28,2.64-8.28,8.06,0,5.15,3.25,8.17,7.87,8.17a8.23,8.23,0,0,0,2.76-.35v-5.24h-3.86v-4.4h9.31Z"/><path class="cls-2" d="M169.12,187.13v24.94h-5.64V187.13Z"/><path class="cls-2" d="M187.79,191.86h-6.73v-4.73h19.2v4.73h-6.83v20.21h-5.64Z"/><path class="cls-2" d="M215.32,205.67l-1.76,6.4h-5.83l7.61-24.94h7.38l7.77,24.94h-6.08l-1.92-6.4Zm6.34-4.21-1.55-5.3c-.43-1.47-.88-3.34-1.26-4.8h-.08c-.36,1.47-.74,3.36-1.14,4.81l-1.49,5.29Z"/><path class="cls-2" d="M242.77,187.13h5.64v20.21h9.92v4.73H242.77Z"/><g class="cls-3"><path class="cls-4" d="M190.83,123.5a20.19,20.19,0,0,0-3.46,6.68l28.73,20.44c0-.22.07-.44.1-.67q-5.12-15.13-10.22-30.28a15.57,15.57,0,0,0-5.09-.8A12.21,12.21,0,0,0,190.83,123.5Z"/><path class="cls-4" d="M135.45,92.7a1.16,1.16,0,0,1,.51,1.56c-2,5.72-3.89,11.45-5.83,17.18h5c6.39,0,11,.47,14.21,1.45a18.13,18.13,0,0,1,8.63,5.75,14.61,14.61,0,0,1,1.44,2l7.3-5.2,10,7.14a32.24,32.24,0,0,1,3.86-4.27,30.1,30.1,0,0,1,21.12-8.19l1.07,0q-2.58-7.66-5.18-15.33a1.76,1.76,0,0,1,.73-2.44q21.36-15.58,42.63-31.26l4-3h-58c-.78,0-1.27-.08-1.56-1q-7.94-24.47-16-48.92c-.87-2.68-1.76-5.36-2.73-8.28-.25.73-.43,1.21-.58,1.69q-9,27.48-17.93,55A1.86,1.86,0,0,1,146,58.2q-27.84-.06-55.69,0H88.49c.54.44.81.68,1.09.89Q112.52,75.89,135.45,92.7Z"/><path class="cls-4" d="M117.46,149c-.17.52-.33,1.05-.59,1.86l2.83-2v-6.47Z"/><path class="cls-4" d="M137.15,120.3a26.27,26.27,0,0,0-3.76.35v18.49l13.08-9.31c0-.12,0-.23,0-.35a8.93,8.93,0,0,0-2.51-6.67A9.14,9.14,0,0,0,137.15,120.3Z"/></g><path class="cls-2" d="M131.7,72.83h.8c8.21,0,16.42,0,24.64,0a.82.82,0,0,0,1-.68Q162,60,166,47.85c.07-.21.15-.42.26-.74.42,1.29.82,2.47,1.21,3.66q3.52,10.81,7.05,21.64c.13.4.34.43.69.43h25.65l-1.76,1.3Q189.71,81.07,180.28,88a.78.78,0,0,0-.33,1.08q4.17,12.27,8.3,24.56s0,.06,0,.22l-22-15.65-22,15.67c.11-.36.18-.59.26-.82q2.7-8,5.41-16c.92-2.73,1.83-5.46,2.77-8.18a.51.51,0,0,0-.23-.69L132.19,73.23Z"/></g></g></svg>