<svg xmlns="http://www.w3.org/2000/svg" viewBox="0 0 333.42 215.44"><defs><style>.cls-1{fill:#fff;}.cls-2{fill:none;stroke:#fff;stroke-miterlimit:10;stroke-width:2px;}</style></defs><g id="Livello_2" data-name="Livello 2"><g id="Livello_1-2" data-name="Livello 1"><path class="cls-1" d="M16.21,120.49V143H28.72q4.88,0,6.51-1.47c1.46-1.29,2.27-3.55,2.44-6.8h1.55v19.82H37.67a22,22,0,0,0-1.18-5.33A5.23,5.23,0,0,0,34,146.91a12.62,12.62,0,0,0-5.29-.84H16.21v18.77a17.62,17.62,0,0,0,.33,4.59,2.71,2.71,0,0,0,1.18,1.31,7.17,7.17,0,0,0,3.19.48h9.66a26,26,0,0,0,7-.67,10.4,10.4,0,0,0,4.2-2.65,32.33,32.33,0,0,0,5.34-7.85h1.67l-4.91,14.28H0v-1.56H2a8,8,0,0,0,3.82-1,3.54,3.54,0,0,0,1.82-2,19.72,19.72,0,0,0,.49-5.5v-37c0-3.62-.37-5.84-1.1-6.68q-1.5-1.68-5-1.68H0v-1.55H43.88l.63,12.47H42.87a19.34,19.34,0,0,0-1.95-6.18,6.75,6.75,0,0,0-3.17-2.56,19,19,0,0,0-5.92-.63Z"/><path class="cls-1" d="M91.79,118.94v-1.55H112v1.55h-2.14a5.81,5.81,0,0,0-5.17,2.81c-.58.87-.88,2.89-.88,6v23.09q0,8.58-1.7,13.3a16.7,16.7,0,0,1-6.67,8.1q-5,3.38-13.55,3.38-9.32,0-14.15-3.23a17.51,17.51,0,0,1-6.84-8.7q-1.35-3.74-1.35-14V127.46q0-5.25-1.45-6.88t-4.68-1.64H51.23v-1.55H75.84v1.55H73.65q-3.53,0-5,2.23-1.05,1.5-1.05,6.29v24.82a55.43,55.43,0,0,0,.6,7.6,16.16,16.16,0,0,0,2.21,6.68,12.07,12.07,0,0,0,4.6,3.95,15.94,15.94,0,0,0,7.37,1.55,20.25,20.25,0,0,0,10-2.44,13.06,13.06,0,0,0,6-6.23q1.6-3.81,1.61-12.87V127.46c0-3.55-.39-5.78-1.17-6.67a6.18,6.18,0,0,0-4.87-1.85Z"/><path class="cls-1" d="M171,174.33h-15.2L136.52,147.7c-1.43.06-2.59.09-3.49.09l-1.17,0-1.31-.07v16.55c0,3.58.4,5.81,1.18,6.68a6,6,0,0,0,4.79,1.84h2.22v1.56h-24.4v-1.56h2.15c2.4,0,4.13-.78,5.16-2.35.59-.87.88-2.92.88-6.17V127.46q0-5.37-1.17-6.67a6.18,6.18,0,0,0-4.87-1.85h-2.15v-1.55h20.75q9.07,0,13.37,1.32a15.25,15.25,0,0,1,7.31,4.87,12.69,12.69,0,0,1,3,8.46,13.28,13.28,0,0,1-3.42,9.11q-3.42,3.87-10.6,5.46L156.5,163q4,5.63,6.93,7.47a17.43,17.43,0,0,0,7.56,2.35Zm-40.44-29.27c.53,0,1,0,1.39,0l1,0q8.15,0,12.28-3.53a11.29,11.29,0,0,0,4.13-9,11.73,11.73,0,0,0-3.33-8.67,12,12,0,0,0-8.84-3.34,37.18,37.18,0,0,0-6.6.79Z"/><path class="cls-1" d="M201.69,116.08a25.84,25.84,0,0,1,19.21,8.42q8.13,8.43,8.13,21,0,13-8.19,21.54a27.37,27.37,0,0,1-39.58.21q-8-8.36-8-21.62,0-13.58,9.24-22.13A27.22,27.22,0,0,1,201.69,116.08Zm-.8,3.07a15,15,0,0,0-12.26,5.67q-5.76,7.05-5.75,20.66,0,13.94,6,21.46a14.75,14.75,0,0,0,12.09,5.71,16.52,16.52,0,0,0,13.25-6.26q5.23-6.25,5.23-19.74,0-14.61-5.75-21.79Q209,119.15,200.89,119.15Z"/><path class="cls-1" d="M250,147.66v16.59q0,5.37,1.18,6.68a6,6,0,0,0,4.82,1.84h2.19v1.56h-24.4v-1.56h2.14q3.61,0,5.17-2.35c.56-.87.84-2.92.84-6.17V127.46q0-5.37-1.14-6.67a6.17,6.17,0,0,0-4.87-1.85h-2.14v-1.55h20.87q7.65,0,12.05,1.57a16.56,16.56,0,0,1,7.43,5.31,13.64,13.64,0,0,1,3,8.86,14.91,14.91,0,0,1-4.6,11.34q-4.6,4.36-13,4.37a36,36,0,0,1-4.45-.3C253.51,148.35,251.8,148.05,250,147.66Zm0-2.39c1.48.28,2.8.49,4,.63a24.63,24.63,0,0,0,2.94.21,10,10,0,0,0,7.53-3.38,12.25,12.25,0,0,0,3.17-8.76,15.69,15.69,0,0,0-1.51-6.86,10.41,10.41,0,0,0-4.28-4.75,12.53,12.53,0,0,0-6.3-1.57,24.86,24.86,0,0,0-5.5.79Z"/><path class="cls-1" d="M311.62,155.26h-22l-3.87,9a14.19,14.19,0,0,0-1.42,4.95,2.87,2.87,0,0,0,1.24,2.29c.82.66,2.61,1.09,5.35,1.28v1.56H273v-1.56q3.57-.63,4.62-1.63,2.15-2,4.74-8.19l20-46.87h1.47l19.82,47.37q2.4,5.72,4.35,7.41a8.81,8.81,0,0,0,5.44,1.91v1.56H311v-1.56c2.27-.11,3.8-.49,4.6-1.13a2.92,2.92,0,0,0,1.2-2.35,17.43,17.43,0,0,0-1.68-5.84Zm-1.17-3.11-9.66-23-9.91,23Z"/><path class="cls-1" d="M75.09,190.58a50.44,50.44,0,0,1,7.6-.53c4.73,0,7.82.87,10.21,2.67,2.59,1.94,4.22,5,4.22,9.39,0,4.78-1.73,8.08-4.12,10.1-2.63,2.19-6.65,3.23-11.51,3.23a47.55,47.55,0,0,1-6.4-.37Zm5.63,20.35a11.75,11.75,0,0,0,2,.1c5.1.05,8.46-2.78,8.46-8.74,0-5.18-3-7.9-7.87-7.9a12.45,12.45,0,0,0-2.56.21Z"/><path class="cls-1" d="M115.43,190.24v24.94h-5.64V190.24Z"/><path class="cls-1" d="M150.12,214a27.8,27.8,0,0,1-8.33,1.4c-4.56,0-7.84-1.14-10.14-3.35a12.24,12.24,0,0,1-3.53-9.08c0-8.29,6.08-13,14.24-13a17.45,17.45,0,0,1,6.94,1.2l-1.18,4.52a13.71,13.71,0,0,0-5.8-1.06c-4.71,0-8.28,2.64-8.28,8.07,0,5.15,3.25,8.16,7.87,8.16a8.23,8.23,0,0,0,2.76-.35v-5.24h-3.86v-4.4h9.31Z"/><path class="cls-1" d="M169.12,190.24v24.94h-5.64V190.24Z"/><path class="cls-1" d="M187.79,195h-6.73v-4.73h19.2V195h-6.83v20.21h-5.64Z"/><path class="cls-1" d="M215.32,208.78l-1.76,6.4h-5.83l7.61-24.94h7.38l7.77,24.94h-6.08l-1.92-6.4Zm6.34-4.2-1.55-5.3c-.43-1.48-.88-3.35-1.26-4.81h-.08c-.36,1.47-.74,3.36-1.14,4.81l-1.49,5.3Z"/><path class="cls-1" d="M242.77,190.24h5.64v20.21h9.92v4.73H242.77Z"/><path class="cls-2" d="M190.83,126.61a20.19,20.19,0,0,0-3.46,6.68l28.73,20.44c0-.22.07-.44.1-.66L206,122.78a15.57,15.57,0,0,0-5.09-.8A12.21,12.21,0,0,0,190.83,126.61Z"/><path class="cls-2" d="M135.45,95.81a1.16,1.16,0,0,1,.51,1.56c-2,5.72-3.89,11.45-5.83,17.18h5c6.39,0,11,.47,14.21,1.45a18.13,18.13,0,0,1,8.63,5.75,14.61,14.61,0,0,1,1.44,2l7.3-5.2,10,7.14a32.24,32.24,0,0,1,3.86-4.27,30.1,30.1,0,0,1,21.12-8.19c.36,0,.72,0,1.07,0q-2.58-7.68-5.18-15.34a1.76,1.76,0,0,1,.73-2.44q21.36-15.59,42.63-31.26l4-3h-1.66q-28.17,0-56.35,0c-.78,0-1.27-.09-1.56-1q-7.94-24.47-16-48.92c-.87-2.68-1.76-5.36-2.73-8.28-.25.73-.43,1.21-.58,1.69q-9,27.48-17.93,55A1.88,1.88,0,0,1,146,61.32q-27.84-.07-55.69,0H88.49c.54.44.81.68,1.09.89Q112.52,79,135.45,95.81Z"/><path class="cls-2" d="M117.46,152.15c-.17.52-.33,1-.59,1.86l2.83-2v-6.47Z"/><path class="cls-2" d="M137.15,123.41a26.27,26.27,0,0,0-3.76.35v18.49l13.08-9.3c0-.12,0-.24,0-.36a8.93,8.93,0,0,0-2.51-6.67A9.14,9.14,0,0,0,137.15,123.41Z"/><path class="cls-1" d="M131.7,76h.8q12.31,0,24.64,0a.82.82,0,0,0,1-.68Q162,63.12,166,51c.07-.22.15-.43.26-.75.42,1.29.82,2.47,1.21,3.66Q171,64.7,174.55,75.52c.13.4.34.43.69.43h25.65l-1.76,1.31q-9.42,6.92-18.85,13.82a.78.78,0,0,0-.33,1.08q4.17,12.27,8.3,24.56s0,.06,0,.22l-22-15.65-22,15.67c.11-.36.18-.59.26-.82q2.7-8,5.41-16c.92-2.73,1.83-5.46,2.77-8.18a.51.51,0,0,0-.23-.69L132.19,76.34C132.06,76.25,131.94,76.14,131.7,76Z"/></g></g></svg>
